<?xml version="1.0" standalone="no"?><!DOCTYPE svg PUBLIC "-//W3C//DTD SVG 1.1//EN" "http://www.w3.org/Graphics/SVG/1.1/DTD/svg11.dtd"><svg t="1621406206677" class="icon" viewBox="0 0 1024 1024" version="1.1" xmlns="http://www.w3.org/2000/svg" p-id="2470" xmlns:xlink="http://www.w3.org/1999/xlink" width="200" height="200"><defs><style type="text/css"></style></defs><path d="M480 172.8C307.2 189.866667 172.8 334.933333 172.8 512c0 51.2 12.8 98.133333 29.866667 140.8l275.2-157.866667c2.133333 0 2.133333-322.133333 2.133333-322.133333zM238.933333 712.533333c64 87.466667 166.4 138.666667 273.066667 138.666667 108.8 0 211.2-51.2 273.066667-138.666667L514.133333 554.666667l-275.2 157.866666z m352-482.133333c23.466667-12.8 19.2-46.933333-6.4-53.333333L554.666667 172.8h-4.266667v34.133333c-2.133333 21.333333 21.333333 34.133333 40.533333 23.466667z m0 138.666667l132.266667-76.8c17.066667-10.666667 19.2-34.133333 4.266667-46.933334-4.266667-4.266667-8.533333-6.4-12.8-8.533333-8.533333-6.4-21.333333-6.4-29.866667-2.133333l-121.6 70.4c-8.533333 4.266667-12.8 14.933333-12.8 23.466666v12.8c0 14.933333 12.8 27.733333 27.733333 27.733334 2.133333 4.266667 6.4 2.133333 12.8 0z m-29.866666 134.4l4.266666 4.266666c8.533333 4.266667 19.2 4.266667 27.733334 0l206.933333-119.466666c12.8-6.4 17.066667-21.333333 10.666667-34.133334 0 0 0-2.133333-2.133334-2.133333l-6.4-12.8c-8.533333-12.8-23.466667-17.066667-38.4-10.666667L556.8 448c-8.533333 4.266667-12.8 14.933333-12.8 23.466667v8.533333c4.266667 6.4 8.533333 17.066667 17.066667 23.466667z m232.533333 83.2c-12.8 6.4-17.066667 23.466667-10.666667 36.266666 2.133333 4.266667 6.4 8.533333 10.666667 10.666667l25.6 14.933333 2.133333 2.133334c0-2.133333 2.133333-2.133333 2.133334-4.266667 4.266667-8.533333 8.533333-19.2 12.8-27.733333 6.4-21.333333-19.2-42.666667-42.666667-32z m57.6-125.866667c-4.266667-21.333333-23.466667-29.866667-42.666667-21.333333l-134.4 78.933333c-12.8 6.4-17.066667 23.466667-10.666666 36.266667 2.133333 4.266667 6.4 8.533333 10.666666 10.666666l12.8 6.4c8.533333 4.266667 19.2 4.266667 27.733334 0l123.733333-70.4c8.533333-4.266667 14.933333-14.933333 12.8-27.733333v-12.8z" p-id="2471"></path></svg>