<?xml version="1.0" standalone="no"?><!DOCTYPE svg PUBLIC "-//W3C//DTD SVG 1.1//EN" "http://www.w3.org/Graphics/SVG/1.1/DTD/svg11.dtd"><svg t="1621422715718" class="icon" viewBox="0 0 1024 1024" version="1.1" xmlns="http://www.w3.org/2000/svg" p-id="7331" xmlns:xlink="http://www.w3.org/1999/xlink" width="200" height="200"><defs><style type="text/css"></style></defs><path d="M704.2 129.2H319.9c-17.7 0-32-14.3-32-32s14.3-32 32-32h384.3c17.7 0 32 14.3 32 32s-14.3 32-32 32zM805.3 671H218.9c-17.7 0-32-14.3-32-32s14.3-32 32-32h586.4c17.7 0 32 14.3 32 32s-14.4 32-32 32z" p-id="7332"></path><path d="M832.5 961.3H192.2c-46.8 0-91.4-25.8-113.6-65.7-19.9-35.8-18.5-77.3 3.9-113.9l269.6-470.1V109.2c0-17.7 14.3-32 32-32s32 14.3 32 32V320c0 5.6-1.5 11.1-4.2 15.9l-274.1 478-0.6 0.9c-10.6 17.1-11.5 33.8-2.7 49.6 10.8 19.3 34.5 32.8 57.7 32.9h640.3c23 0 46.8-13.7 57.8-33.2 8.1-14.4 7.9-28.9-0.7-42.9-0.2-0.2-0.3-0.5-0.4-0.7L612.5 336.9c-2.8-4.8-4.2-10.3-4.2-15.9V109.2c0-17.7 14.3-32 32-32s32 14.3 32 32v203.3l272.1 475.8c20.3 33.7 20.9 72.7 1.6 107.1-22.5 40-67 65.8-113.5 65.9z" p-id="7333"></path></svg>