<?xml version="1.0" standalone="no"?><!DOCTYPE svg PUBLIC "-//W3C//DTD SVG 1.1//EN" "http://www.w3.org/Graphics/SVG/1.1/DTD/svg11.dtd"><svg t="1621423285226" class="icon" viewBox="0 0 1024 1024" version="1.1" xmlns="http://www.w3.org/2000/svg" p-id="33115" xmlns:xlink="http://www.w3.org/1999/xlink" width="200" height="200"><defs><style type="text/css"></style></defs><path d="M825 953H185c-52.9 0-96-43.1-96-96V153c0-52.9 43.1-96 96-96h528c52.9 0 96 43.1 96 96v496c0 52.9-43.1 96-96 96H185c-17.6 0-32 14.4-32 32v80c0 17.6 14.4 32 32 32h640c23.6 0 32-24.8 32-48V105c0-17.7 14.3-32 32-32s32 14.3 32 32v736c0 32.1-9.1 59.8-26.4 80-17.6 20.6-42.3 32-69.6 32zM185 121c-17.6 0-32 14.4-32 32v533.5c10-3.5 20.8-5.5 32-5.5h528c17.6 0 32-14.4 32-32V153c0-17.6-14.4-32-32-32H185z" p-id="33116"></path><path d="M761 857H249c-17.7 0-32-14.3-32-32s14.3-32 32-32h512c17.7 0 32 14.3 32 32s-14.3 32-32 32z" p-id="33117"></path></svg>