<?xml version="1.0" standalone="no"?><!DOCTYPE svg PUBLIC "-//W3C//DTD SVG 1.1//EN" "http://www.w3.org/Graphics/SVG/1.1/DTD/svg11.dtd"><svg t="1621422809464" class="icon" viewBox="0 0 1024 1024" version="1.1" xmlns="http://www.w3.org/2000/svg" p-id="8982" xmlns:xlink="http://www.w3.org/1999/xlink" width="200" height="200"><defs><style type="text/css"></style></defs><path d="M916 779.1l-22.4-544.8C890.4 158 825.7 98.2 746.5 98.2H276.1c-80.1 0-143.4 58.4-147.2 136.1l-22.3 541.8c-2 38.7 12.5 79.2 37.8 105.7 28.1 29.4 64.5 46.3 99.9 46.3h534c34.6 0 71.1-17.3 99.9-47.5 26-27 39.8-64.2 37.8-101.5z m-82.9 58.6c-16.9 17.7-37.4 28.3-54.9 28.3h-534c-18.1 0-38.6-10.1-54.8-27-13.5-14.1-21.8-38-20.6-59.8l22.3-541.9c2.2-44.4 37.9-76.7 85-76.7h470.3c45.8 0 83.1 33.6 85 76.4l22.4 545.1c1.1 20.5-6.4 40.8-20.7 55.6zM677.4 274.6c-17.2 0-31.1 13.9-31.1 31.1 0 74.4-60.5 134.9-134.9 134.9s-134.9-60.5-134.9-134.9c0-17.2-13.9-31.1-31.1-31.1-17.2 0-31.1 13.9-31.1 31.1 0 108.7 88.5 197.1 197.2 197.1 108.8 0 197.2-88.4 197.2-197.1-0.1-17.2-14.1-31.1-31.3-31.1z" p-id="8983"></path></svg>