<?xml version="1.0" standalone="no"?><!DOCTYPE svg PUBLIC "-//W3C//DTD SVG 1.1//EN" "http://www.w3.org/Graphics/SVG/1.1/DTD/svg11.dtd"><svg t="1621406192436" class="icon" viewBox="0 0 1024 1024" version="1.1" xmlns="http://www.w3.org/2000/svg" p-id="2039" xmlns:xlink="http://www.w3.org/1999/xlink" width="200" height="200"><defs><style type="text/css"></style></defs><path d="M837.19531277 195.59375a26.3671875 26.3671875 0 0 1 0 52.734375H810.82812527v386.71874973a52.734375 52.734375 0 0 1-52.734375 52.734375h-85.67578152l78.09960938 78.08203152a26.3671875 26.3671875 0 1 1-37.30078098 37.30078098L597.83398465 687.78124973h-171.52734402l-115.29492161 115.31250027a26.3671875 26.3671875 0 0 1-37.28320312-37.28320313L351.72265652 687.78124973H265.90624973a52.734375 52.734375 0 0 1-52.734375-52.734375V248.328125H186.80468723a26.3671875 26.3671875 0 0 1 0-52.734375h650.39062554z m-121.86914062 165.99023465a26.3671875 26.3671875 0 0 0-37.28320313 0l-104.37890679 104.34374945-86.57226508-86.6074216-0.15820313-0.15820313a26.4902341 26.4902341 0 0 0-4.13085992-3.375l-2.24999945-1.33593722a26.33203098 26.33203098 0 0 0-9.73828152-2.90039063l-2.53125-0.10546875c-1.6875 0-3.375 0.15820313-5.02734348 0.47460938l-2.46093777 0.59765598c-4.0957034 1.23046848-7.9277341 3.42773438-11.14453098 6.64453125l-140.76562555 140.73046902a26.3671875 26.3671875 0 1 0 37.3007818 37.26562445l122.09765598-122.06249945 86.73046902 86.78320258c5.1503909 5.1503909 11.9003909 7.73437527 18.63281223 7.73437527l2.54882785-0.1230466c5.87109348-0.56250027 11.6015625-3.11132813 16.10156304-7.61132867l123.04687473-123.01171821 1.79296875-2.00390625a26.3671875 26.3671875 0 0 0-1.8105466-35.27929687z" fill="#666666" p-id="2040"></path></svg>